<?xml version="1.0" encoding="utf-8"?>
<!-- Generator: Adobe Illustrator 26.2.1, SVG Export Plug-In . SVG Version: 6.00 Build 0)  -->
<svg version="1.1" id="圖層_1" xmlns="http://www.w3.org/2000/svg" xmlns:xlink="http://www.w3.org/1999/xlink" x="0px" y="0px"
	 viewBox="0 0 170 45" style="enable-background:new 0 0 170 45;" xml:space="preserve">
<style type="text/css">
	.st0{fill:#E0C743;}
	.st1{fill:#C1613D;}
	.st2{fill:#FFFFFF;}
	.st3{fill:#4A2A12;}
</style>
<g>
	<path class="st0" d="M16.39,2.16v4.47c0.08,0.65,0.28,1.06,0.65,1.22c0.32,0.11,0.67,0.05,0.93-0.16c0.08,0,0.12-0.08,0.16-0.12
		c0.35-0.29,0.81-0.42,1.26-0.37c0.48,0.03,0.92,0.29,1.18,0.69c0.32,0.4,0.48,0.91,0.45,1.42c0.04,0.54-0.12,1.07-0.45,1.5
		c-0.52,0.74-1.55,0.92-2.29,0.4c-0.05-0.04-0.1-0.07-0.15-0.12c-0.04-0.05-0.1-0.08-0.16-0.08c-0.25-0.23-0.62-0.29-0.93-0.16
		c-0.37,0.16-0.57,0.57-0.65,1.18v6.51c-0.08,0.61-0.29,1.02-0.65,1.18c-0.37,0.14-0.79,0.04-1.06-0.25
		c-0.36-0.31-0.83-0.46-1.3-0.41c-0.48,0.04-0.91,0.29-1.18,0.69c-0.33,0.43-0.49,0.96-0.45,1.5c-0.03,0.53,0.13,1.05,0.45,1.47
		c0.27,0.39,0.71,0.63,1.18,0.65c0.47,0.06,0.94-0.09,1.3-0.41c0.28-0.27,0.69-0.37,1.06-0.24c0.37,0.16,0.57,0.57,0.65,1.22v2.32
		h8.25c0.85,0.08,1.42,0.37,1.63,0.89c0.19,0.52,0.04,1.1-0.37,1.47c-0.44,0.48-0.64,1.14-0.53,1.79c0.06,0.64,0.38,1.23,0.89,1.63
		c0.6,0.43,1.33,0.64,2.07,0.61c0.73,0.03,1.44-0.19,2.03-0.61c0.54-0.37,0.87-0.98,0.9-1.63c0.09-0.64-0.1-1.3-0.53-1.79
		c-0.4-0.38-0.53-0.96-0.33-1.47c0.2-0.53,0.73-0.81,1.67-0.89h11.18c0.21-1.21,0.32-2.43,0.33-3.66c0.09-5.65-2.18-11.09-6.26-15
		c-3.93-4.06-9.36-6.31-15-6.22c-1.06,0-2.12,0.07-3.17,0.2c-0.45,0.08-0.85,0.12-1.26,0.2C17.37,1.92,16.88,2,16.39,2.16z"/>
	<path class="st1" d="M16.39,6.63V2.16c-3.46,0.99-6.6,2.87-9.11,5.45c-2.1,2.04-3.74,4.51-4.8,7.24c-0.12,0.24-0.2,0.49-0.33,0.78
		c-0.09,0.22-0.15,0.46-0.2,0.69h5.53c0.61-0.08,0.94-0.28,1.1-0.65c0.13-0.27,0.12-0.59-0.04-0.85c-0.08-0.08-0.12-0.16-0.2-0.2
		c-0.31-0.36-0.46-0.83-0.41-1.3c0.04-0.49,0.3-0.93,0.69-1.22c0.44-0.27,0.95-0.41,1.47-0.41c0.53-0.01,1.05,0.13,1.5,0.41
		c0.38,0.3,0.63,0.74,0.69,1.22c0.06,0.47-0.09,0.95-0.41,1.3c-0.3,0.26-0.41,0.68-0.28,1.06c0.27,0.41,0.73,0.66,1.22,0.65h3.58
		v-4.28c0.08-0.61,0.28-1.02,0.65-1.18c0.32-0.13,0.68-0.07,0.93,0.16c0.06,0,0.12,0.03,0.16,0.08c0.68,0.6,1.72,0.54,2.32-0.14
		c0.04-0.05,0.08-0.1,0.12-0.15c0.33-0.43,0.49-0.96,0.45-1.5c0.03-0.51-0.13-1.02-0.45-1.42c-0.26-0.4-0.7-0.66-1.18-0.69
		c-0.45-0.05-0.91,0.08-1.26,0.37c-0.04,0.04-0.08,0.12-0.16,0.12c-0.26,0.21-0.62,0.27-0.93,0.16C16.68,7.69,16.47,7.28,16.39,6.63
		z"/>
	<path class="st2" d="M8.63,12.08c-0.4,0.29-0.65,0.73-0.69,1.22c-0.06,0.47,0.09,0.95,0.41,1.3c0.08,0.04,0.12,0.12,0.2,0.2
		c0.16,0.26,0.17,0.58,0.04,0.85c-0.16,0.37-0.49,0.57-1.1,0.65H1.96c-0.08,0.24-0.16,0.53-0.24,0.81
		c-0.45,1.79-0.66,3.64-0.65,5.49c-0.09,5.65,2.16,11.08,6.22,15c2.51,2.58,5.65,4.46,9.11,5.45v-6.67
		c-0.08-0.69-0.29-1.1-0.65-1.22c-0.36-0.16-0.78-0.08-1.06,0.2c-0.36,0.31-0.83,0.46-1.3,0.41c-0.46-0.06-0.88-0.29-1.18-0.65
		c-0.32-0.42-0.48-0.94-0.45-1.47c-0.04-0.54,0.12-1.07,0.45-1.5c0.27-0.4,0.7-0.65,1.18-0.69c0.47-0.05,0.94,0.09,1.3,0.41
		c0.28,0.27,0.69,0.37,1.06,0.24c0.38-0.17,0.63-0.56,0.61-0.98c0.03-0.06,0.05-0.13,0.04-0.2v-6.99c-0.08-0.65-0.29-1.06-0.65-1.22
		c-0.37-0.12-0.78-0.03-1.06,0.24c-0.36,0.31-0.83,0.46-1.3,0.41c-0.47-0.02-0.91-0.26-1.18-0.65c-0.32-0.42-0.48-0.94-0.45-1.47
		c-0.04-0.54,0.12-1.07,0.45-1.5c0.27-0.4,0.7-0.65,1.18-0.69c0.47-0.05,0.94,0.09,1.3,0.41c0.27,0.29,0.69,0.39,1.06,0.24
		c0.37-0.16,0.57-0.57,0.65-1.18v-2.23h-3.58c-0.49,0.01-0.95-0.24-1.22-0.65c-0.13-0.38-0.02-0.79,0.28-1.06
		c0.31-0.36,0.46-0.83,0.41-1.3c-0.06-0.48-0.31-0.92-0.69-1.22c-0.45-0.27-0.97-0.41-1.5-0.41C9.57,11.67,9.07,11.81,8.63,12.08z"
		/>
	<g>
		<path class="st3" d="M16.35,31.15c0.02,0.42-0.22,0.81-0.61,0.98c-0.37,0.12-0.78,0.03-1.06-0.24c-0.36-0.31-0.83-0.46-1.3-0.41
			c-0.48,0.04-0.91,0.29-1.18,0.69c-0.33,0.43-0.49,0.96-0.45,1.5c-0.03,0.53,0.12,1.05,0.45,1.47c0.29,0.36,0.72,0.59,1.18,0.65
			c0.47,0.05,0.94-0.09,1.3-0.41c0.28-0.28,0.7-0.36,1.06-0.2c0.37,0.12,0.57,0.53,0.65,1.22v6.67c0.49,0.16,0.98,0.28,1.5,0.41
			c0.41,0.04,0.81,0.12,1.26,0.2c1.05,0.13,2.11,0.2,3.17,0.2c5.65,0.09,11.09-2.18,15-6.26c2.82-2.72,4.79-6.19,5.69-10
			c0.04-0.28,0.12-0.53,0.16-0.81c0.05-0.17,0.08-0.35,0.08-0.53H32.09c-0.93,0.08-1.47,0.37-1.67,0.89
			c-0.2,0.51-0.07,1.09,0.33,1.47c0.43,0.49,0.62,1.14,0.53,1.79c-0.03,0.65-0.36,1.25-0.89,1.62c-0.59,0.42-1.31,0.64-2.03,0.61
			c-0.74,0.03-1.47-0.18-2.07-0.61c-0.51-0.4-0.83-0.98-0.89-1.63c-0.11-0.65,0.09-1.31,0.53-1.79c0.41-0.37,0.55-0.95,0.37-1.47
			c-0.2-0.53-0.77-0.81-1.63-0.89h-8.26v4.68C16.4,31.01,16.39,31.09,16.35,31.15z"/>
		<path class="st3" d="M28.35,33.13c-0.87,0.03-1.74-0.22-2.44-0.74c-0.64-0.5-1.05-1.23-1.13-2.04c-0.13-0.82,0.12-1.66,0.68-2.27
			c0.25-0.2,0.35-0.54,0.24-0.85c-0.14-0.32-0.66-0.44-1.08-0.49h-8.22c-0.34,0-0.61-0.27-0.61-0.61c0-0.34,0.27-0.61,0.61-0.61
			h8.25h0.06c0.91-0.04,1.75,0.47,2.14,1.29c0,0.01,0.01,0.03,0.01,0.04c0.25,0.73,0.05,1.54-0.52,2.07
			c-0.31,0.35-0.44,0.83-0.35,1.29c0.04,0.48,0.28,0.91,0.66,1.21c0.5,0.35,1.1,0.52,1.71,0.49c0.59,0.03,1.18-0.14,1.66-0.48
			c0.4-0.26,0.64-0.7,0.66-1.18c0.08-0.49-0.06-0.99-0.39-1.36c-0.55-0.54-0.71-1.36-0.43-2.07c0.42-0.81,1.27-1.31,2.18-1.28h0.05
			h11.18c0.34,0,0.61,0.27,0.61,0.61c0,0.34-0.27,0.61-0.61,0.61H32.11c-0.97,0.09-1.08,0.39-1.12,0.5
			c-0.12,0.29-0.04,0.63,0.21,0.84c0.54,0.62,0.79,1.45,0.68,2.27c-0.04,0.83-0.47,1.59-1.15,2.06
			C30.04,32.92,29.2,33.17,28.35,33.13L28.35,33.13z"/>
		<path class="st3" d="M16.39,16.79h-3.58c-0.03,0-0.05,0-0.08,0c-0.68-0.02-1.31-0.38-1.68-0.96c-0.02-0.03-0.04-0.07-0.05-0.11
			c-0.2-0.6-0.03-1.26,0.43-1.68c0.18-0.22,0.27-0.51,0.23-0.8c-0.04-0.31-0.19-0.59-0.43-0.79c-0.35-0.2-0.75-0.31-1.16-0.3
			c-0.4-0.01-0.78,0.1-1.12,0.3c-0.47,0.38-0.57,1.06-0.21,1.55c0.07,0.06,0.13,0.12,0.19,0.19c0.01,0.01,0.02,0.03,0.04,0.04
			c0.04,0.04,0.07,0.08,0.1,0.13c0.24,0.42,0.28,0.93,0.09,1.37c-0.3,0.61-0.91,1.01-1.59,1.04c-0.03,0-0.05,0.01-0.08,0.01H1.96
			c-0.34,0-0.61-0.27-0.61-0.61c0-0.34,0.27-0.61,0.61-0.61h5.49c0.49-0.07,0.55-0.21,0.58-0.29c0.04-0.08,0.05-0.17,0.02-0.25
			C8.03,15.01,8.01,14.99,8,14.97c-0.04-0.03-0.08-0.06-0.11-0.1c-0.42-0.48-0.63-1.12-0.56-1.76c0-0.01,0-0.03,0.01-0.04
			c0.07-0.65,0.41-1.24,0.94-1.63c0.54-0.34,1.17-0.52,1.81-0.52c0.64-0.01,1.27,0.17,1.82,0.49c0.02,0.01,0.04,0.03,0.06,0.04
			c0.5,0.4,0.83,0.97,0.92,1.61c0,0.01,0,0.03,0.01,0.04c0.07,0.64-0.13,1.28-0.56,1.76c-0.18,0.18-0.2,0.3-0.17,0.41
			c0.06,0.09,0.21,0.22,0.7,0.29h3.54c0.34,0,0.61,0.27,0.61,0.61C17.01,16.51,16.73,16.79,16.39,16.79L16.39,16.79z"/>
		<path class="st3" d="M16.39,26.75c-0.34,0-0.61-0.27-0.61-0.61v-2.28c-0.05-0.37-0.15-0.62-0.27-0.69
			c-0.16-0.04-0.32,0.01-0.43,0.13c-0.48,0.42-1.12,0.62-1.75,0.56c-0.65-0.04-1.25-0.37-1.63-0.91c-0.39-0.52-0.59-1.16-0.56-1.81
			c-0.04-0.68,0.16-1.35,0.58-1.88c0.37-0.53,0.96-0.87,1.61-0.92c0.64-0.07,1.27,0.13,1.76,0.56c0.24,0.21,0.36,0.16,0.4,0.14
			c0.13-0.06,0.24-0.3,0.29-0.66v-2.2c0-0.34,0.27-0.61,0.61-0.61c0.34,0,0.61,0.27,0.61,0.61v2.24c0,0.03,0,0.05-0.01,0.08
			c-0.01,0.69-0.4,1.33-1.01,1.66c-0.59,0.24-1.26,0.11-1.71-0.35c-0.23-0.2-0.54-0.3-0.85-0.26c-0.3,0.02-0.57,0.18-0.73,0.43
			c-0.01,0.02-0.03,0.04-0.04,0.06c-0.4,0.67-0.39,1.51,0.02,2.18c0.17,0.25,0.45,0.41,0.75,0.42c0.31,0.04,0.62-0.05,0.85-0.26
			c0.44-0.42,1.08-0.56,1.66-0.37c0.02,0.01,0.04,0.01,0.05,0.02c0.61,0.36,0.99,1,1.01,1.71c0,0.03,0,0.05,0,0.08v2.32
			C17,26.47,16.73,26.75,16.39,26.75L16.39,26.75z"/>
		<path class="st3" d="M16.39,43.54c-0.34,0-0.61-0.27-0.61-0.61V36.3c-0.06-0.51-0.19-0.66-0.23-0.68
			c-0.02-0.01-0.04-0.01-0.05-0.02c-0.07-0.03-0.19-0.09-0.41,0.11c-0.48,0.42-1.12,0.62-1.75,0.56l-0.05-0.01
			c-0.61-0.08-1.17-0.39-1.56-0.88c-0.41-0.52-0.62-1.18-0.58-1.84c-0.04-0.68,0.16-1.35,0.58-1.88c0.37-0.53,0.96-0.87,1.61-0.92
			c0.64-0.07,1.27,0.13,1.76,0.56c0.11,0.12,0.27,0.17,0.43,0.13c0.1-0.05,0.19-0.12,0.22-0.45c0-0.06,0.02-0.12,0.04-0.17v-4.66
			c0-0.34,0.27-0.61,0.61-0.61c0.34,0,0.61,0.27,0.61,0.61v4.68c0,0.12-0.01,0.24-0.05,0.35c-0.03,0.6-0.41,1.14-0.96,1.38
			c-0.02,0.01-0.04,0.01-0.05,0.02c-0.58,0.19-1.21,0.05-1.65-0.36c-0.23-0.2-0.54-0.3-0.85-0.26c-0.3,0.02-0.57,0.18-0.73,0.43
			c-0.01,0.02-0.03,0.04-0.04,0.06c-0.39,0.67-0.39,1.49,0,2.16c0.2,0.25,0.48,0.41,0.8,0.45c0.3,0.03,0.6-0.06,0.82-0.26
			c0.45-0.43,1.11-0.56,1.68-0.32c0.87,0.31,0.99,1.37,1.04,1.72c0,0.02,0,0.05,0,0.07v6.67C17,43.26,16.73,43.53,16.39,43.54
			L16.39,43.54z"/>
		<path class="st3" d="M16.39,16.79c-0.34,0-0.61-0.27-0.61-0.61v-4.27c0-0.03,0-0.05,0.01-0.08c0.01-0.69,0.4-1.33,1.01-1.66
			c0.48-0.2,1.02-0.14,1.45,0.15c0.13,0.05,0.24,0.12,0.33,0.22c0.2,0.19,0.48,0.27,0.76,0.23c0.29-0.01,0.56-0.16,0.73-0.4
			c0.02-0.03,0.04-0.06,0.07-0.09c0.22-0.32,0.33-0.71,0.29-1.1c0.03-0.36-0.07-0.73-0.29-1.02c-0.03-0.03-0.05-0.06-0.07-0.09
			c-0.16-0.24-0.43-0.39-0.73-0.4c-0.27-0.03-0.54,0.04-0.76,0.2c-0.09,0.11-0.21,0.2-0.34,0.25c-0.41,0.28-0.93,0.34-1.4,0.17
			c-0.62-0.35-1.02-1-1.04-1.71c0-0.02,0-0.05-0.01-0.08V2.03c0-0.34,0.27-0.61,0.61-0.61c0.34,0,0.61,0.27,0.61,0.61v4.43
			c0.05,0.39,0.16,0.64,0.29,0.7c0.01,0,0.13,0.05,0.33-0.1c0.02-0.02,0.05-0.03,0.08-0.05l0.01-0.01c0.48-0.41,1.11-0.61,1.74-0.54
			c0.01,0,0.03,0,0.04,0.01c0.64,0.06,1.22,0.4,1.58,0.93c0.4,0.51,0.6,1.14,0.56,1.79c0.04,0.67-0.16,1.33-0.56,1.87
			c-0.36,0.53-0.94,0.87-1.58,0.93l-0.04,0.01c-0.61,0.07-1.22-0.12-1.68-0.52c-0.07-0.03-0.14-0.06-0.19-0.11
			c-0.09-0.09-0.22-0.11-0.32-0.05c-0.1,0.04-0.2,0.29-0.25,0.65v4.23C17,16.52,16.73,16.8,16.39,16.79L16.39,16.79z"/>
		<path class="st3" d="M22.33,44.56c-1.09,0-2.18-0.07-3.27-0.21l-0.05-0.01l-0.21-0.04c-0.35-0.06-0.68-0.13-0.99-0.16
			c-0.03,0-0.07-0.01-0.1-0.02c-0.49-0.11-1.02-0.24-1.56-0.42c-3.59-1.03-6.84-2.98-9.45-5.65c-4.2-4.08-6.54-9.72-6.46-15.57
			c-0.01-1.92,0.21-3.83,0.68-5.7c0.09-0.3,0.17-0.58,0.25-0.82c0.06-0.27,0.14-0.53,0.24-0.78c0.05-0.12,0.09-0.21,0.12-0.3
			c0.07-0.17,0.13-0.33,0.21-0.49c1.1-2.82,2.79-5.38,4.97-7.48c2.6-2.67,5.86-4.62,9.45-5.65c0.37-0.12,0.75-0.21,1.14-0.29
			c0.14-0.03,0.28-0.06,0.42-0.09c0.26-0.05,0.49-0.09,0.73-0.12c0.18-0.03,0.37-0.05,0.57-0.09l0.05-0.02
			c1.08-0.14,2.17-0.21,3.27-0.21C28.19,0.36,33.82,2.7,37.91,6.9c4.23,4.07,6.58,9.71,6.5,15.58c0,1.25-0.11,2.5-0.33,3.73
			c-0.01,0.21-0.04,0.41-0.09,0.61c-0.02,0.15-0.05,0.29-0.09,0.43c-0.03,0.11-0.05,0.22-0.07,0.34c0,0.02-0.01,0.04-0.01,0.07
			c-0.94,3.96-2.99,7.57-5.91,10.4C33.84,42.29,28.2,44.64,22.33,44.56z M19.28,42.74c1.01,0.13,2.03,0.19,3.05,0.2
			c5.43,0.08,10.66-2.1,14.43-6.02c2.7-2.61,4.59-5.93,5.47-9.58c0.02-0.15,0.06-0.3,0.09-0.44c0.03-0.11,0.05-0.22,0.07-0.34
			c0-0.03,0.01-0.06,0.02-0.09c0.03-0.11,0.05-0.22,0.06-0.33c0-0.05,0-0.09,0.01-0.14c0.21-1.16,0.31-2.34,0.31-3.52
			c0.08-5.43-2.1-10.66-6.02-14.42c-3.78-3.89-9-6.06-14.43-5.98c-1.02,0-2.04,0.07-3.05,0.2c-0.21,0.04-0.4,0.07-0.6,0.09
			c-0.21,0.03-0.42,0.06-0.62,0.1c-0.13,0.03-0.28,0.06-0.43,0.09C17.3,2.62,16.97,2.7,16.65,2.8l-0.04,0.01
			c-3.32,0.95-6.34,2.76-8.75,5.24C5.84,10.01,4.27,12.38,3.25,15c-0.01,0.03-0.02,0.05-0.03,0.08c-0.06,0.13-0.12,0.26-0.17,0.4
			C3,15.59,2.95,15.7,2.91,15.81c-0.06,0.17-0.12,0.35-0.15,0.53c-0.01,0.03-0.02,0.07-0.03,0.1c-0.08,0.23-0.16,0.51-0.23,0.78
			c-0.43,1.72-0.63,3.49-0.62,5.26C1.8,27.91,3.96,33.12,7.86,36.91c2.41,2.48,5.43,4.29,8.75,5.24l0.04,0.01
			c0.46,0.15,0.93,0.27,1.38,0.37c0.36,0.04,0.7,0.1,1.07,0.17L19.28,42.74L19.28,42.74z"/>
		<path class="st3" d="M18.15,19.51v-2.58h0.97c0.17,0,0.33,0.03,0.49,0.1c0.12,0.05,0.22,0.14,0.28,0.26
			c0.05,0.1,0.08,0.21,0.08,0.33c0.01,0.12-0.03,0.24-0.1,0.35c-0.06,0.08-0.13,0.14-0.22,0.2c0.14,0.04,0.25,0.13,0.33,0.25
			c0.07,0.11,0.11,0.24,0.11,0.37c0,0.14-0.04,0.29-0.12,0.41c-0.08,0.12-0.2,0.22-0.35,0.27c-0.06,0.02-0.12,0.04-0.18,0.05
			c-0.07,0.01-0.13,0.02-0.2,0.02L18.15,19.51z M18.8,17.96h0.22c0.06,0,0.11-0.01,0.17-0.03c0.04-0.01,0.07-0.04,0.09-0.06
			c0.02-0.02,0.04-0.05,0.04-0.08c0.01-0.03,0.01-0.05,0.01-0.08c0-0.1-0.06-0.18-0.15-0.22c-0.03-0.01-0.06-0.02-0.09-0.02
			c-0.03,0-0.07-0.01-0.1-0.01h-0.2L18.8,17.96z M18.8,18.96h0.31c0.08,0.01,0.16-0.01,0.23-0.05c0.07-0.04,0.11-0.11,0.1-0.19
			c0-0.05-0.01-0.09-0.03-0.13c-0.02-0.04-0.05-0.07-0.09-0.09c-0.07-0.03-0.14-0.04-0.22-0.04H18.8L18.8,18.96z"/>
		<path class="st3" d="M21,19.57c-0.13,0-0.26-0.02-0.38-0.04c-0.06-0.01-0.12-0.03-0.17-0.04c-0.04-0.01-0.08-0.03-0.11-0.05
			l0.15-0.56c0.06,0.03,0.13,0.06,0.2,0.08c0.06,0.02,0.13,0.03,0.19,0.03c0.07,0.01,0.15-0.02,0.2-0.07
			c0.05-0.07,0.08-0.16,0.07-0.25v-1.73h0.66v1.87c0.02,0.21-0.07,0.42-0.22,0.57C21.43,19.51,21.21,19.58,21,19.57z"/>
		<path class="st3" d="M23.48,19.57c-0.17,0-0.35-0.03-0.5-0.11c-0.14-0.07-0.27-0.17-0.37-0.29c-0.1-0.13-0.18-0.27-0.22-0.43
			c-0.05-0.17-0.07-0.34-0.07-0.52c-0.01-0.26,0.05-0.51,0.16-0.74c0.09-0.2,0.25-0.36,0.44-0.46c0.17-0.09,0.37-0.13,0.56-0.14
			c0.25-0.01,0.5,0.07,0.7,0.22c0.18,0.13,0.31,0.32,0.37,0.53c0.06,0.19,0.1,0.39,0.1,0.58c0,0.18-0.02,0.35-0.07,0.52
			c-0.04,0.16-0.12,0.3-0.22,0.43c-0.1,0.12-0.22,0.22-0.37,0.29C23.83,19.53,23.66,19.57,23.48,19.57z M23.48,18.98
			c0.08,0.01,0.16-0.02,0.23-0.06c0.06-0.05,0.12-0.11,0.15-0.19c0.04-0.08,0.07-0.16,0.09-0.25c0.02-0.09,0.02-0.17,0.02-0.26
			c0.01-0.13-0.01-0.25-0.05-0.37c-0.03-0.09-0.07-0.17-0.13-0.24c-0.04-0.05-0.1-0.1-0.16-0.13c-0.04-0.02-0.09-0.03-0.14-0.03
			c-0.12-0.01-0.24,0.05-0.32,0.15c-0.04,0.05-0.07,0.1-0.09,0.16c-0.02,0.05-0.04,0.11-0.05,0.16c-0.01,0.05-0.02,0.1-0.02,0.15
			v0.13c0,0.1,0.01,0.2,0.03,0.3c0.02,0.08,0.05,0.17,0.09,0.24c0.04,0.06,0.09,0.12,0.15,0.16C23.34,18.96,23.41,18.98,23.48,18.98
			z"/>
		<path class="st3" d="M25.2,19.51v-2.58h1.02c0.18,0,0.36,0.04,0.51,0.12c0.13,0.06,0.24,0.17,0.3,0.3
			c0.06,0.12,0.09,0.25,0.09,0.38c0.01,0.15-0.04,0.29-0.12,0.41c-0.08,0.1-0.18,0.18-0.3,0.23c0.09,0.02,0.16,0.07,0.21,0.14
			c0.06,0.09,0.1,0.19,0.12,0.3l0.19,0.69h-0.66l-0.16-0.56c-0.01-0.1-0.06-0.19-0.13-0.26c-0.06-0.05-0.14-0.07-0.21-0.06h-0.21
			v0.88L25.2,19.51z M25.85,18.08h0.25c0.1,0.01,0.2-0.02,0.28-0.07c0.06-0.06,0.08-0.13,0.08-0.21c0.01-0.08-0.02-0.16-0.08-0.22
			c-0.08-0.06-0.18-0.08-0.27-0.07h-0.25L25.85,18.08z"/>
		<path class="st3" d="M28.7,19.57c-0.16,0-0.33-0.03-0.48-0.09c-0.14-0.06-0.27-0.15-0.37-0.27c-0.11-0.12-0.19-0.27-0.23-0.42
			c-0.06-0.18-0.08-0.37-0.08-0.56c-0.01-0.28,0.05-0.55,0.18-0.79c0.1-0.19,0.26-0.34,0.45-0.43c0.16-0.07,0.34-0.11,0.52-0.11
			c0.2-0.01,0.4,0.04,0.58,0.14c0.16,0.1,0.29,0.23,0.39,0.39l-0.46,0.36c-0.05-0.08-0.12-0.16-0.19-0.22
			c-0.08-0.06-0.17-0.09-0.27-0.08c-0.15,0-0.29,0.07-0.37,0.19c-0.11,0.17-0.16,0.38-0.14,0.58c0,0.11,0.01,0.23,0.04,0.34
			c0.02,0.09,0.06,0.17,0.11,0.24c0.04,0.06,0.1,0.11,0.17,0.14c0.06,0.03,0.14,0.05,0.21,0.05c0.1,0,0.19-0.01,0.29-0.03v-0.36
			H28.7V18.1h0.96v1.31c-0.13,0.05-0.27,0.09-0.41,0.12C29.07,19.56,28.89,19.57,28.7,19.57z"/>
		<path class="st3" d="M29.96,19.51l0.93-2.58h0.65l0.93,2.58h-0.69l-0.16-0.44h-0.82l-0.16,0.44H29.96z M30.96,18.54h0.52
			l-0.26-0.87L30.96,18.54z"/>
		<path class="st3" d="M32.59,19.51l0.93-2.58h0.65l0.93,2.58h-0.69l-0.16-0.44h-0.82l-0.16,0.44H32.59z M33.58,18.54h0.52
			l-0.26-0.87L33.58,18.54z"/>
		<path class="st3" d="M36.27,19.57c-0.19,0-0.39-0.02-0.57-0.08c-0.14-0.05-0.27-0.11-0.39-0.19l0.27-0.54
			c0.06,0.05,0.13,0.09,0.2,0.12c0.09,0.04,0.18,0.08,0.27,0.1c0.07,0.02,0.14,0.03,0.21,0.03c0.09,0.01,0.17-0.01,0.25-0.05
			c0.05-0.03,0.08-0.09,0.08-0.14c0.01-0.05-0.01-0.1-0.05-0.14c-0.13-0.09-0.28-0.16-0.44-0.2c-0.11-0.03-0.22-0.07-0.32-0.12
			c-0.09-0.04-0.17-0.09-0.25-0.16c-0.07-0.06-0.12-0.14-0.16-0.22c-0.04-0.1-0.06-0.2-0.05-0.31c0-0.16,0.04-0.32,0.14-0.44
			c0.05-0.07,0.11-0.13,0.18-0.17c0.07-0.04,0.14-0.08,0.21-0.1c0.07-0.03,0.15-0.04,0.22-0.05c0.07-0.01,0.13-0.01,0.2-0.01
			c0.11,0,0.23,0.01,0.34,0.03c0.09,0.02,0.18,0.05,0.26,0.09c0.07,0.03,0.14,0.07,0.2,0.12c0.05,0.04,0.1,0.08,0.14,0.13
			l-0.35,0.44c-0.07-0.08-0.16-0.15-0.26-0.2c-0.09-0.05-0.2-0.07-0.31-0.07c-0.08-0.01-0.17,0.01-0.24,0.05
			c-0.05,0.03-0.08,0.08-0.08,0.14c0,0.06,0.03,0.12,0.09,0.15c0.05,0.03,0.09,0.05,0.14,0.07c0.07,0.03,0.15,0.06,0.25,0.09
			c0.14,0.03,0.27,0.09,0.4,0.16c0.09,0.06,0.17,0.13,0.23,0.21c0.05,0.07,0.09,0.15,0.11,0.24c0.02,0.08,0.03,0.16,0.03,0.24
			c0.01,0.17-0.05,0.35-0.16,0.48c-0.1,0.12-0.24,0.21-0.39,0.25C36.55,19.53,36.41,19.56,36.27,19.57L36.27,19.57z"/>
		<path class="st3" d="M18.15,23.79v-2.58h1.72v0.6h-1.06v0.47h0.85v0.59h-0.85v0.93L18.15,23.79z"/>
		<path class="st3" d="M21.36,23.84c-0.17,0-0.35-0.03-0.5-0.11c-0.14-0.07-0.27-0.17-0.37-0.29c-0.1-0.13-0.18-0.27-0.22-0.43
			c-0.05-0.17-0.07-0.34-0.07-0.52c-0.01-0.26,0.05-0.51,0.16-0.74c0.09-0.2,0.25-0.36,0.44-0.46c0.17-0.09,0.37-0.13,0.56-0.14
			c0.25-0.01,0.5,0.07,0.7,0.22c0.18,0.13,0.31,0.32,0.37,0.53c0.06,0.19,0.1,0.39,0.1,0.58c0,0.18-0.02,0.35-0.07,0.52
			c-0.04,0.16-0.12,0.3-0.22,0.43c-0.1,0.12-0.22,0.22-0.37,0.29C21.71,23.81,21.54,23.84,21.36,23.84z M21.36,23.26
			c0.08,0.01,0.16-0.02,0.23-0.07c0.06-0.05,0.12-0.11,0.15-0.19c0.04-0.08,0.07-0.16,0.09-0.25c0.02-0.09,0.02-0.17,0.02-0.26
			c0.01-0.12-0.01-0.25-0.05-0.37c-0.03-0.09-0.07-0.17-0.13-0.24c-0.04-0.05-0.1-0.1-0.16-0.13c-0.04-0.02-0.09-0.03-0.14-0.03
			c-0.12-0.01-0.24,0.05-0.32,0.15c-0.04,0.05-0.07,0.1-0.09,0.16c-0.02,0.05-0.04,0.11-0.05,0.16c-0.01,0.05-0.02,0.1-0.02,0.15
			v0.13c0,0.1,0.01,0.2,0.03,0.3c0.02,0.08,0.05,0.17,0.09,0.24c0.04,0.06,0.09,0.12,0.15,0.16C21.22,23.24,21.29,23.26,21.36,23.26
			L21.36,23.26z"/>
		<path class="st3" d="M24.11,23.84c-0.15,0-0.29-0.02-0.43-0.07c-0.12-0.04-0.24-0.11-0.33-0.19c-0.09-0.08-0.17-0.19-0.21-0.31
			c-0.05-0.13-0.08-0.27-0.08-0.41v-1.65h0.66v1.61c-0.01,0.12,0.03,0.23,0.1,0.32c0.08,0.08,0.18,0.12,0.29,0.11
			c0.11,0.01,0.22-0.03,0.29-0.11c0.07-0.09,0.11-0.2,0.1-0.32v-1.61h0.66v1.65c0,0.14-0.02,0.28-0.08,0.41
			c-0.05,0.12-0.12,0.22-0.21,0.31c-0.1,0.09-0.21,0.15-0.33,0.19C24.4,23.82,24.25,23.84,24.11,23.84L24.11,23.84z"/>
		<path class="st3" d="M25.8,23.79v-2.58h0.66l0.8,1.36v-1.36h0.65v2.58h-0.6l-0.86-1.45v1.45H25.8z"/>
		<path class="st3" d="M28.57,23.79v-2.58h0.84c0.11,0,0.22,0.01,0.33,0.03c0.1,0.02,0.21,0.05,0.3,0.1c0.16,0.07,0.3,0.19,0.4,0.35
			c0.05,0.07,0.09,0.15,0.13,0.23c0.03,0.07,0.06,0.14,0.07,0.22c0.02,0.06,0.03,0.13,0.03,0.2c0.01,0.06,0.01,0.12,0.01,0.16
			c0,0.24-0.05,0.48-0.16,0.7c-0.1,0.21-0.28,0.37-0.49,0.47c-0.09,0.04-0.19,0.07-0.29,0.1c-0.11,0.02-0.22,0.04-0.33,0.03H28.57z
			 M29.23,23.19h0.17c0.12,0.01,0.25-0.03,0.35-0.1c0.09-0.06,0.15-0.15,0.2-0.24c0.05-0.11,0.07-0.23,0.07-0.35
			c0-0.12-0.02-0.24-0.06-0.35c-0.04-0.1-0.1-0.18-0.18-0.24c-0.05-0.04-0.11-0.06-0.17-0.08c-0.07-0.02-0.13-0.03-0.2-0.03h-0.17
			L29.23,23.19z"/>
		<path class="st3" d="M30.84,23.79l0.93-2.58h0.65l0.93,2.58h-0.69l-0.16-0.44h-0.82l-0.16,0.44H30.84z M31.84,22.81h0.52
			l-0.26-0.87L31.84,22.81z"/>
		<path class="st3" d="M33.92,23.79V21.8h-0.68v-0.6h2.03v0.6h-0.68v1.98H33.92z"/>
		<path class="st3" d="M35.71,23.79v-2.58h0.66v2.58H35.71z"/>
		<path class="st3" d="M38.07,23.84c-0.17,0-0.35-0.03-0.5-0.11c-0.14-0.07-0.27-0.17-0.37-0.29c-0.1-0.13-0.18-0.27-0.22-0.43
			c-0.05-0.17-0.07-0.34-0.07-0.52c-0.01-0.26,0.05-0.51,0.16-0.74c0.09-0.2,0.25-0.36,0.44-0.46c0.17-0.09,0.37-0.13,0.56-0.14
			c0.25-0.01,0.5,0.07,0.7,0.22c0.18,0.13,0.31,0.32,0.37,0.53c0.06,0.19,0.1,0.39,0.1,0.58c0,0.18-0.02,0.35-0.07,0.52
			c-0.04,0.16-0.12,0.3-0.22,0.43c-0.1,0.12-0.22,0.22-0.37,0.29C38.42,23.81,38.25,23.84,38.07,23.84z M38.07,23.26
			c0.08,0.01,0.16-0.02,0.23-0.07c0.06-0.05,0.12-0.11,0.15-0.19c0.04-0.08,0.07-0.16,0.09-0.25c0.02-0.09,0.02-0.17,0.02-0.26
			c0.01-0.12-0.01-0.25-0.05-0.37c-0.03-0.09-0.07-0.17-0.13-0.24c-0.04-0.05-0.1-0.1-0.16-0.13c-0.04-0.02-0.09-0.03-0.14-0.03
			c-0.12-0.01-0.24,0.05-0.32,0.15c-0.04,0.05-0.07,0.1-0.09,0.16c-0.02,0.05-0.04,0.11-0.05,0.16c-0.01,0.05-0.02,0.1-0.02,0.15
			v0.13c0,0.1,0.01,0.2,0.03,0.3c0.02,0.08,0.05,0.17,0.09,0.24c0.04,0.06,0.09,0.12,0.15,0.16C37.93,23.24,38,23.26,38.07,23.26
			L38.07,23.26z"/>
		<path class="st3" d="M39.79,23.79v-2.58h0.66l0.79,1.36v-1.36h0.65v2.58h-0.6l-0.86-1.45v1.45H39.79z"/>
		<path class="st3" d="M22.15,19.27l2.38-2.38l0.3,0.3l-2.38,2.38L22.15,19.27z"/>
		<path class="st3" d="M61.07,16.53h3.57v1.51h-3.57v1.28h2.52v1.4h-6.33v1.11h7.64v1.46h-7.64v2.35h-1.6v-2.3h-7.68v-1.44h7.62
			v-1.19h-6.47v-1.4h2.63v-1.28H48.3v-1.51h3.45V15h-2.06V8.33h13.47V15h-2.1L61.07,16.53z M51.44,12.48h0.09v1.08h4.07v-1.08H51.44
			z M55.6,11.01V9.77h-4.07v1.24L55.6,11.01z M55.53,15h-2.1v1.53h2.1V15z M55.53,19.32v-1.27h-2.1v1.28L55.53,19.32z M57.26,11
			h4.16V9.77h-4.16L57.26,11z M61.41,13.56v-1.07h-4.16v1.08L61.41,13.56z M59.45,16.53V15h-2.19v1.53L59.45,16.53z M59.45,18.04
			h-2.19v1.28h2.19L59.45,18.04z"/>
		<path class="st3" d="M81.44,17.19l-0.53,0.86h5.11v1.29H73.83v1.35h3.72l-0.22,1.93c-0.05,0.55-0.11,1.03-0.18,1.45
			c-0.05,0.34-0.13,0.67-0.24,0.99c-0.34,0.53-0.94,0.84-1.57,0.8h-1.24l-0.02-0.18l-0.13-0.58c-0.03-0.11-0.05-0.2-0.06-0.28
			c-0.02-0.1-0.06-0.19-0.1-0.28v-0.2l0.05-0.05h1.02c0.37,0.03,0.71-0.16,0.88-0.49l0.2-1.81h-2.26c-0.4,1.48-1.58,2.81-3.54,3.97
			l-0.2-0.09l-1.17-0.66l-0.02-0.15l0.44-0.18c1.59-0.92,2.52-1.87,2.79-2.83h-2.24v-1.37h2.57v-1.35h-3.59v-1.29h5.07l-0.57-0.86
			h-1.66v-3.55h11.58v3.55L81.44,17.19z M85.78,9.47v1.35h-7.64v0.84h5.78v1.37H70.75v-1.37h5.67v-0.84h-7.57V9.48h7.57V8.02
			l1.29,0.16c0.52,0.11,0.78,0.26,0.78,0.45c0,0.1-0.12,0.21-0.37,0.35v0.49L85.78,9.47z M73.1,15.89h8.48v-1.11H73.1V15.89z
			 M75.02,17.19l0.64,0.86h3.54l0.47-0.86H75.02z M83.22,25.92v-0.71h-3.48v0.71h-1.61v-5.36h6.62v5.36L83.22,25.92z M79.74,21.98
			v1.81h3.48v-1.8L79.74,21.98z"/>
		<path class="st3" d="M97.39,23.55v-7.06h-7.57v-1.75h7.57V8.71l1.59,0.2c0.41,0.06,0.62,0.18,0.62,0.36
			c0,0.11-0.12,0.27-0.36,0.47v5h7.55v1.75h-7.55v7.06h6.18v1.7H91.3v-1.69H97.39z"/>
		<path class="st3" d="M125.86,24.24v1.51h-12.96v-1.51h5.82v-1.62h-3.61v-1.39c-1.03,0.92-2.18,1.7-3.41,2.32l-0.09,0.02
			c-0.07,0-0.14-0.04-0.18-0.09c-0.28-0.37-0.62-0.69-1-0.95c-0.03-0.02-0.06-0.04-0.09-0.06c-0.01-0.01-0.02-0.03-0.03-0.05
			l0.07-0.13c1.68-0.83,3.2-1.95,4.49-3.3h-3.96v-1.53h4.14v-5.93h-3.1v-1.4h3.1V8.22l1.62,0.26c0.44,0.11,0.66,0.24,0.66,0.38
			s-0.15,0.3-0.46,0.42v0.86h5.18V8.29l1.71,0.31c0.28,0.1,0.42,0.2,0.42,0.31s-0.14,0.25-0.42,0.42v0.8h2.92v1.4h-2.92v5.92h3.92
			v1.53h-3.65c1.13,1.36,2.52,2.48,4.08,3.3l0.05,0.18c-0.22,0.17-0.43,0.34-0.62,0.49c-0.26,0.23-0.44,0.4-0.57,0.51l-0.13,0.04
			l-0.07-0.04c-0.54-0.3-1.06-0.63-1.56-0.98c-0.5-0.36-0.98-0.76-1.43-1.18v1.31h-3.48v1.62H125.86z M115.21,21.2h3.5v-1.97
			l1.55,0.31c0.34,0.07,0.51,0.17,0.51,0.31c0,0.14-0.15,0.24-0.46,0.36v0.98h3.36c-0.32-0.34-0.62-0.7-0.89-1.08
			c-0.26-0.36-0.49-0.74-0.69-1.13H117C116.46,19.78,115.87,20.52,115.21,21.2L115.21,21.2z M122.04,12.68v-1.15h-5.18v1.15H122.04z
			 M122.04,15.05v-1.2h-5.18v1.2H122.04z M122.04,17.46v-1.22h-5.18v1.22L122.04,17.46z"/>
		<path class="st3" d="M142.1,9.07l0.07,0.11l0.04,0.09c0,0.15-0.16,0.29-0.47,0.44c0.57,0.8,1.19,1.57,1.86,2.29
			c0.57,0.62,1.21,1.18,1.9,1.67l1.86,1.18c0.22,0.11,0.58,0.28,1.08,0.51l0.62,0.29l0.05,0.16l-1.08,1.15l-0.15,0.11l-0.05,0.02
			c-0.52-0.26-1.03-0.55-1.52-0.86c-0.44-0.29-0.86-0.6-1.27-0.94l-0.06-0.15v0.98h-3.85v2.57h5.22v1.39h-5.22v4.25h6.97v1.46
			h-15.35v-1.46h6.64v-4.25h-5.23V18.7h5.23v-2.57h-3.65v-1.09l-1.64,1.08l-1.53,0.8l-0.04,0.04l-0.07-0.02l-0.13-0.07l-1.04-1.04
			l-0.05-0.09l0.05-0.13c1.67-0.74,3.22-1.69,4.63-2.85c1.6-1.38,3.06-2.92,4.36-4.59L142.1,9.07z M135.05,21.64l1.42-0.71
			c0.58,0.77,1.1,1.6,1.53,2.46l-1.39,0.71c-0.35-0.63-0.83-1.39-1.44-2.26L135.05,21.64z M143.93,14.64
			c-1.3-1.16-2.47-2.46-3.5-3.87c-0.33,0.35-0.65,0.69-0.96,1.01c-0.31,0.32-0.66,0.67-1.05,1.03c-0.39,0.36-0.72,0.67-1,0.93
			c-0.12,0.11-0.46,0.41-1.02,0.89H143.93z M142.65,23.44l0.11-0.11c0.58-0.82,1.1-1.69,1.55-2.59l1.35,0.73
			c0.12,0.05,0.21,0.16,0.24,0.29c0,0.13-0.18,0.25-0.53,0.36l-0.64,1.06c-0.1,0.16-0.2,0.32-0.3,0.47
			c-0.11,0.17-0.24,0.34-0.37,0.49L142.65,23.44z"/>
		<path class="st3" d="M157.24,12.79c-1.12,0.58-2.3,1.04-3.52,1.37l-0.11,0.02l-0.05-0.02l-1.04-1.11l-0.05-0.11l0.05-0.07
			c3.2-1.09,6.19-2.73,8.83-4.85l1.46,0.69c0.21,0.11,0.31,0.22,0.31,0.33c0,0.12-0.13,0.21-0.4,0.27c2.08,1.61,4.45,2.79,6.98,3.48
			l0.05,0.15l-0.05,0.16c-0.2,0.15-0.39,0.31-0.57,0.47c-0.13,0.12-0.32,0.3-0.55,0.55l-0.15,0.04l-0.07-0.04
			c-1.11-0.25-2.19-0.66-3.19-1.2v0.55h-7.93V12.79z M166.34,18.97h-10.19v0.4h-1.75v-5.34h13.64v5.34h-1.7L166.34,18.97z
			 M155.78,19.77h11.03v6.15h-1.75v-0.75h-7.53v0.79h-1.75V19.77z M156.14,15.38v2.33h1.61l-0.78-2.33H156.14z M157.53,20.96v1.02
			h7.53v-1.02L157.53,20.96z M157.53,23.04V24h7.53v-0.97H157.53z M158.73,11.97h4.94c-0.89-0.48-1.71-1.1-2.43-1.82
			C160.48,10.85,159.64,11.46,158.73,11.97L158.73,11.97z M158.77,15.38l0.58,2.33h1.02v-2.33H158.77z M161.94,15.38v2.33h1.29
			l0.73-2.33H161.94z M165.64,15.38l-0.73,2.33h1.42v-2.33H165.64z"/>
		<path class="st3" d="M105.51,36.84v-6.92h4.61v1.61h-2.84v1.25h2.27v1.57h-2.27v2.48L105.51,36.84z"/>
		<path class="st3" d="M114.11,36.99c-0.47,0.01-0.93-0.09-1.35-0.29c-0.38-0.18-0.71-0.45-0.98-0.78
			c-0.27-0.34-0.47-0.73-0.59-1.15c-0.13-0.45-0.2-0.92-0.2-1.39c-0.01-0.69,0.13-1.37,0.43-1.98c0.25-0.53,0.66-0.96,1.18-1.23
			c0.47-0.23,0.98-0.36,1.5-0.36c0.67-0.02,1.33,0.19,1.86,0.6c0.48,0.35,0.83,0.85,1,1.42c0.17,0.5,0.26,1.03,0.26,1.56
			c0,0.47-0.06,0.94-0.2,1.39c-0.12,0.42-0.32,0.81-0.59,1.15c-0.26,0.33-0.6,0.59-0.98,0.78C115.04,36.9,114.58,37,114.11,36.99
			L114.11,36.99z M114.11,35.42c0.22,0.02,0.44-0.04,0.61-0.17c0.17-0.13,0.31-0.31,0.41-0.5c0.11-0.21,0.18-0.44,0.22-0.67
			c0.04-0.23,0.06-0.46,0.06-0.69c0.02-0.34-0.03-0.67-0.13-0.99c-0.08-0.23-0.2-0.45-0.35-0.64c-0.12-0.14-0.26-0.26-0.43-0.34
			c-0.12-0.06-0.25-0.08-0.38-0.07c-0.33-0.02-0.65,0.13-0.85,0.39c-0.1,0.13-0.18,0.28-0.24,0.43c-0.06,0.14-0.1,0.29-0.13,0.44
			c-0.03,0.14-0.05,0.27-0.06,0.41c-0.01,0.13-0.01,0.25-0.01,0.35c0,0.27,0.03,0.55,0.09,0.81c0.05,0.23,0.13,0.45,0.24,0.65
			c0.1,0.17,0.24,0.32,0.4,0.42C113.72,35.37,113.91,35.43,114.11,35.42L114.11,35.42z"/>
		<path class="st3" d="M121.47,36.99c-0.4,0-0.79-0.06-1.16-0.18c-0.33-0.11-0.63-0.29-0.89-0.52c-0.25-0.23-0.45-0.51-0.57-0.82
			c-0.14-0.35-0.21-0.73-0.2-1.11v-4.43h1.77v4.32c-0.02,0.31,0.08,0.62,0.28,0.86c0.21,0.21,0.49,0.32,0.79,0.3
			c0.29,0.02,0.58-0.09,0.78-0.3c0.2-0.24,0.3-0.55,0.28-0.86v-4.32h1.77v4.43c0.01,0.38-0.06,0.76-0.2,1.11
			c-0.13,0.31-0.32,0.6-0.57,0.82c-0.26,0.23-0.57,0.41-0.9,0.52C122.25,36.93,121.86,36.99,121.47,36.99z"/>
		<path class="st3" d="M126,36.84v-6.92h1.78l2.13,3.64v-3.64h1.73v6.92h-1.61l-2.3-3.89v3.89H126z"/>
		<path class="st3" d="M133.42,36.84v-6.92h2.24c0.3,0,0.59,0.03,0.89,0.09c0.28,0.05,0.55,0.14,0.81,0.26
			c0.44,0.2,0.81,0.52,1.07,0.92c0.13,0.19,0.24,0.4,0.34,0.62c0.08,0.19,0.15,0.39,0.2,0.59c0.05,0.17,0.08,0.35,0.09,0.53
			c0.01,0.17,0.02,0.31,0.02,0.43c0.01,0.65-0.14,1.29-0.43,1.87c-0.28,0.55-0.74,0.99-1.3,1.25c-0.25,0.11-0.5,0.2-0.77,0.26
			c-0.29,0.06-0.58,0.09-0.88,0.09L133.42,36.84z M135.19,35.25h0.44c0.33,0.02,0.66-0.07,0.94-0.26c0.23-0.16,0.41-0.39,0.52-0.65
			c0.13-0.3,0.19-0.62,0.18-0.94c0.01-0.32-0.05-0.64-0.17-0.94c-0.1-0.25-0.26-0.48-0.48-0.65c-0.14-0.1-0.29-0.17-0.46-0.22
			c-0.18-0.05-0.36-0.08-0.54-0.08h-0.45L135.19,35.25z"/>
		<path class="st3" d="M139.52,36.84l2.5-6.92h1.75l2.48,6.92h-1.85l-0.42-1.18h-2.2l-0.42,1.18H139.52z M142.19,34.23h1.39
			l-0.69-2.33L142.19,34.23z"/>
		<path class="st3" d="M147.77,36.84v-5.31h-1.83v-1.61h5.43v1.61h-1.81v5.31H147.77z"/>
		<path class="st3" d="M152.56,36.84v-6.92h1.77v6.92H152.56z"/>
		<path class="st3" d="M158.9,36.99c-0.47,0.01-0.93-0.09-1.35-0.29c-0.38-0.18-0.71-0.45-0.98-0.78c-0.27-0.34-0.47-0.73-0.59-1.15
			c-0.13-0.45-0.2-0.92-0.2-1.39c-0.01-0.69,0.14-1.37,0.44-1.98c0.25-0.53,0.66-0.96,1.18-1.23c0.47-0.23,0.98-0.36,1.5-0.36
			c0.67-0.02,1.33,0.19,1.86,0.6c0.48,0.35,0.84,0.85,1,1.42c0.17,0.5,0.26,1.03,0.26,1.56c0,0.47-0.06,0.94-0.2,1.39
			c-0.12,0.42-0.32,0.81-0.59,1.15c-0.26,0.33-0.6,0.59-0.98,0.78C159.83,36.9,159.37,37,158.9,36.99z M158.9,35.42
			c0.22,0.02,0.44-0.04,0.61-0.17c0.17-0.13,0.31-0.31,0.41-0.5c0.11-0.21,0.18-0.44,0.22-0.67c0.04-0.23,0.06-0.46,0.06-0.69
			c0.02-0.34-0.03-0.67-0.13-0.99c-0.08-0.23-0.2-0.45-0.35-0.64c-0.12-0.14-0.26-0.26-0.43-0.34c-0.12-0.06-0.25-0.08-0.38-0.07
			c-0.33-0.02-0.65,0.13-0.85,0.39c-0.1,0.13-0.18,0.28-0.24,0.43c-0.06,0.14-0.1,0.29-0.13,0.44c-0.03,0.14-0.05,0.27-0.06,0.41
			c-0.01,0.13-0.01,0.25-0.01,0.35c0,0.27,0.03,0.55,0.09,0.81c0.05,0.23,0.13,0.45,0.24,0.65c0.1,0.17,0.24,0.32,0.4,0.42
			C158.51,35.37,158.7,35.43,158.9,35.42L158.9,35.42z"/>
		<path class="st3" d="M163.49,36.84v-6.92h1.78l2.13,3.64v-3.64h1.73v6.92h-1.6l-2.31-3.89v3.89H163.49z"/>
		<path class="st3" d="M47.98,36.84v-6.92h2.61c0.45-0.01,0.89,0.08,1.3,0.27c0.33,0.14,0.59,0.38,0.76,0.69
			c0.14,0.27,0.21,0.57,0.21,0.88c0.02,0.33-0.07,0.65-0.26,0.92c-0.16,0.21-0.36,0.39-0.59,0.52c0.36,0.12,0.68,0.35,0.89,0.67
			c0.2,0.29,0.31,0.64,0.31,1c0.01,0.39-0.1,0.77-0.31,1.1c-0.23,0.33-0.55,0.58-0.93,0.71c-0.16,0.06-0.32,0.1-0.49,0.12
			c-0.18,0.03-0.36,0.04-0.54,0.04L47.98,36.84z M49.7,32.67h0.6c0.15,0.01,0.3-0.02,0.44-0.07c0.1-0.04,0.18-0.1,0.25-0.17
			c0.06-0.06,0.09-0.14,0.11-0.22c0.02-0.07,0.03-0.14,0.03-0.21c0.01-0.26-0.15-0.49-0.39-0.58c-0.07-0.02-0.15-0.04-0.23-0.05
			c-0.09-0.01-0.18-0.02-0.27-0.02H49.7V32.67z M49.7,35.36h0.84c0.21,0.02,0.42-0.03,0.61-0.13c0.18-0.11,0.29-0.31,0.28-0.52
			c0-0.12-0.03-0.24-0.09-0.35c-0.05-0.11-0.14-0.19-0.24-0.25C50.92,34.04,50.73,34,50.53,34H49.7V35.36z"/>
		<path class="st3" d="M55.61,36.99c-0.34,0-0.69-0.04-1.03-0.11c-0.15-0.03-0.3-0.06-0.44-0.11c-0.11-0.03-0.21-0.07-0.3-0.13
			l0.4-1.5c0.17,0.09,0.35,0.16,0.54,0.22c0.17,0.05,0.34,0.07,0.52,0.07c0.2,0.01,0.4-0.05,0.55-0.18
			c0.15-0.19,0.21-0.44,0.19-0.68v-4.63h1.78v5.01c0.04,0.58-0.18,1.14-0.6,1.53C56.75,36.83,56.18,37.01,55.61,36.99z"/>
		<path class="st3" d="M62.27,36.99C61.8,37,61.34,36.9,60.92,36.7c-0.38-0.18-0.71-0.45-0.98-0.78c-0.27-0.34-0.47-0.73-0.59-1.15
			c-0.13-0.45-0.2-0.92-0.2-1.39c-0.01-0.69,0.13-1.37,0.43-1.98c0.25-0.53,0.67-0.97,1.19-1.23c0.47-0.23,0.98-0.36,1.5-0.36
			c0.67-0.02,1.33,0.19,1.86,0.6c0.48,0.35,0.83,0.85,1,1.42c0.17,0.5,0.26,1.03,0.26,1.56c0,0.47-0.06,0.94-0.2,1.39
			c-0.12,0.42-0.32,0.81-0.59,1.15c-0.26,0.33-0.6,0.59-0.98,0.78C63.21,36.9,62.74,37,62.27,36.99z M62.27,35.43
			c0.22,0.02,0.44-0.04,0.62-0.17c0.17-0.13,0.31-0.31,0.41-0.5c0.11-0.21,0.18-0.44,0.22-0.67c0.04-0.23,0.06-0.46,0.06-0.69
			c0.02-0.34-0.03-0.67-0.13-0.99c-0.08-0.23-0.2-0.45-0.35-0.64c-0.12-0.14-0.26-0.26-0.43-0.34c-0.12-0.06-0.25-0.08-0.38-0.07
			c-0.33-0.02-0.65,0.13-0.85,0.39c-0.1,0.13-0.18,0.28-0.24,0.43c-0.06,0.14-0.1,0.29-0.13,0.44c-0.03,0.14-0.05,0.27-0.06,0.41
			c-0.01,0.13-0.01,0.25-0.01,0.35c0,0.27,0.03,0.55,0.09,0.81c0.05,0.23,0.13,0.45,0.24,0.65c0.1,0.17,0.24,0.32,0.4,0.42
			C61.88,35.37,62.07,35.43,62.27,35.43L62.27,35.43z"/>
		<path class="st3" d="M66.88,36.84v-6.92h2.72c0.48-0.01,0.95,0.1,1.38,0.32c0.35,0.17,0.63,0.45,0.81,0.8
			c0.15,0.32,0.23,0.67,0.23,1.03c0.02,0.4-0.1,0.79-0.33,1.11c-0.21,0.27-0.48,0.49-0.79,0.63c0.23,0.06,0.43,0.2,0.57,0.39
			c0.15,0.25,0.26,0.52,0.33,0.8l0.5,1.84h-1.78l-0.42-1.5c-0.04-0.26-0.16-0.5-0.34-0.69c-0.16-0.12-0.36-0.18-0.57-0.17h-0.57
			v2.36L66.88,36.84z M68.62,33h0.66c0.26,0.03,0.52-0.04,0.74-0.19c0.15-0.15,0.23-0.35,0.21-0.56c0.02-0.22-0.06-0.43-0.21-0.59
			c-0.21-0.15-0.47-0.22-0.73-0.2h-0.67L68.62,33z"/>
		<path class="st3" d="M76.26,36.99c-0.44,0.01-0.88-0.08-1.29-0.25c-0.38-0.16-0.71-0.41-0.98-0.71c-0.28-0.33-0.5-0.72-0.62-1.13
			c-0.15-0.48-0.22-0.99-0.22-1.5c-0.03-0.74,0.14-1.48,0.49-2.13c0.26-0.51,0.68-0.92,1.2-1.16c0.44-0.19,0.92-0.29,1.4-0.3
			c0.54-0.02,1.07,0.1,1.54,0.36c0.42,0.26,0.78,0.62,1.05,1.05l-1.23,0.96c-0.14-0.23-0.31-0.43-0.52-0.6
			c-0.21-0.15-0.47-0.23-0.72-0.22c-0.39-0.01-0.76,0.18-0.99,0.5c-0.29,0.47-0.43,1.01-0.38,1.56c-0.01,0.3,0.03,0.61,0.11,0.9
			c0.06,0.23,0.16,0.45,0.3,0.64c0.12,0.16,0.27,0.29,0.45,0.38c0.17,0.08,0.37,0.13,0.56,0.12c0.26,0,0.52-0.02,0.78-0.07v-0.97
			h-0.93v-1.37h2.58v3.5c-0.35,0.14-0.72,0.24-1.09,0.31C77.24,36.95,76.75,36.99,76.26,36.99z"/>
		<path class="st3" d="M79.63,36.84l2.5-6.92h1.75l2.49,6.92h-1.86l-0.42-1.18H81.9l-0.42,1.18H79.63z M82.31,34.23h1.39L83,31.9
			L82.31,34.23z"/>
		<path class="st3" d="M86.66,36.84l2.5-6.92h1.75l2.49,6.92h-1.85l-0.42-1.18h-2.19l-0.42,1.18H86.66z M89.33,34.23h1.39
			l-0.69-2.33L89.33,34.23z"/>
		<path class="st3" d="M96.54,36.99c-0.52,0.01-1.03-0.06-1.53-0.21c-0.37-0.12-0.72-0.29-1.05-0.5l0.71-1.45
			c0.17,0.13,0.35,0.24,0.55,0.33c0.23,0.12,0.47,0.21,0.72,0.27c0.19,0.04,0.38,0.07,0.57,0.07c0.23,0.02,0.46-0.03,0.66-0.14
			c0.14-0.08,0.22-0.23,0.22-0.39c0.01-0.13-0.03-0.26-0.12-0.36c-0.36-0.24-0.75-0.42-1.17-0.53c-0.29-0.09-0.58-0.19-0.86-0.32
			c-0.24-0.11-0.46-0.25-0.66-0.43c-0.18-0.17-0.32-0.37-0.42-0.6c-0.1-0.27-0.15-0.55-0.14-0.83c-0.01-0.43,0.12-0.85,0.37-1.19
			c0.13-0.18,0.29-0.33,0.48-0.45c0.18-0.11,0.37-0.2,0.57-0.27c0.19-0.07,0.39-0.11,0.59-0.14c0.17-0.02,0.35-0.03,0.53-0.04
			c0.3,0,0.6,0.03,0.9,0.09c0.24,0.06,0.48,0.14,0.7,0.24c0.19,0.09,0.37,0.2,0.53,0.33c0.13,0.11,0.26,0.22,0.38,0.35l-0.93,1.18
			c-0.2-0.23-0.43-0.41-0.7-0.55c-0.25-0.13-0.54-0.2-0.82-0.2c-0.22-0.02-0.45,0.03-0.64,0.14c-0.13,0.08-0.21,0.22-0.21,0.37
			c0.01,0.17,0.1,0.32,0.24,0.41c0.12,0.07,0.25,0.13,0.38,0.17c0.18,0.07,0.4,0.15,0.68,0.24c0.37,0.09,0.73,0.23,1.06,0.43
			c0.24,0.15,0.45,0.34,0.62,0.56c0.14,0.19,0.24,0.41,0.3,0.64c0.05,0.21,0.08,0.43,0.09,0.64c0.02,0.47-0.13,0.92-0.43,1.28
			c-0.27,0.32-0.64,0.56-1.05,0.67C97.29,36.91,96.92,36.97,96.54,36.99L96.54,36.99z"/>
		<path class="st3" d="M58.69,36.19l6.38-6.38l0.79,0.79l-6.38,6.38L58.69,36.19z"/>
	</g>
</g>
</svg>
